<?xml version="1.0" encoding="utf-8"?><svg xml:space="preserve" viewBox="0 0 100 100" y="0" x="0"
  xmlns="http://www.w3.org/2000/svg" id="圖層_1" version="1.1" width="48px" height="48px"
  xmlns:xlink="http://www.w3.org/1999/xlink"
  style="width:100%;height:100%;background-size:initial;background-repeat-y:initial;background-repeat-x:initial;background-position-y:initial;background-position-x:initial;background-origin:initial;background-color:initial;background-clip:initial;background-attachment:initial;">
  <g class="ldl-scale" style="transform-origin:50% 50%;transform:rotate(0deg) scale(0.8, 0.8);">
    <path stroke-miterlimit="10" stroke-width="3.5" stroke="#333" fill="#666"
      d="M45.3 69.6h-17c-7.7 0-14.5-5-16.8-12.3l-2.8-8.7c-.6-1.7.7-3.5 2.6-3.5h51.1c1.8 0 3.1 1.8 2.6 3.5l-2.8 8.7c-2.4 7.3-9.2 12.3-16.9 12.3z"
      style="stroke:rgb(51, 51, 51);fill:rgb(102, 102, 102);"></path>
    <path stroke-miterlimit="10" stroke-width="3.5" stroke="#000" opacity=".2"
      d="M62.4 45.1H53l-2.7 11c-1.5 5.9-4.6 10.7-8.6 13.5h3.6c7.7 0 14.5-5 16.8-12.3l2.8-8.7c.6-1.7-.7-3.5-2.5-3.5z"
      style="stroke:rgb(0, 0, 0);"></path>
    <path d="M17.7 55.9l-1.8-5.7" stroke-miterlimit="10" stroke-width="3.5" stroke="#fff" stroke-linecap="round"
      fill="none" style="stroke:rgb(255, 255, 255);"></path>
    <path stroke-miterlimit="10" stroke-width="3.5" stroke="#fff" stroke-linecap="round" fill="none"
      d="M21.8 62c-.4-.3-.8-.7-1.1-1" style="stroke:rgb(255, 255, 255);"></path>
    <path d="M65.1 45.1l6-6.3" stroke="#333" fill="none" stroke-miterlimit="10" stroke-width="3.5"
      style="stroke:rgb(51, 51, 51);"></path>
    <g style="">
      <path fill="#333"
        d="M71.1 42.3c-1.5 0-2.9-1-3.4-2.5-.5-1.9.5-3.8 2.4-4.3L87 30.6c1.9-.5 3.8.5 4.3 2.4s-.5 3.8-2.4 4.3L72 42.2c-.3.1-.6.1-.9.1z"
        style="fill:rgb(51, 51, 51);"></path>
    </g>
  </g><!-- generated by https://loading.io/ -->
</svg>